<svg width="328" height="44" viewBox="0 0 328 44" fill="none" xmlns="http://www.w3.org/2000/svg">
<path d="M0 1.51648H9.2515L14.5615 19.5449C15.2732 22.0161 15.9301 24.4873 16.587 28.5872C17.2439 24.4873 17.9008 22.1285 18.6125 19.5449L23.5941 1.51648H33.5025L38.2651 19.5449C38.922 22.0723 39.5789 24.5996 40.2906 28.5872C41.1117 24.375 41.7139 22.0723 42.4255 19.6573L47.845 1.51648H56.8776L44.5057 43.0774H35.8564L28.4662 15.782L20.8569 43.0774H12.1529L0 1.51648Z" fill="#482EDA"/>
<path d="M57.0343 35.403C52.7644 27.8116 54.7625 19.565 61.9155 15.3246C69.0686 11.0843 76.8238 13.1717 81.2853 21.1001L82.3528 23.0003L65.2001 33.2876C67.4354 36.2455 70.0357 36.7135 73.2564 34.804C76.0026 33.1752 77.3712 31.0036 76.915 28.9442L83.6027 24.9847C85.7833 30.8912 83.0371 37.1254 76.5409 40.9726C69.3788 45.2129 61.2495 42.8915 57.0343 35.403ZM62.6911 28.6166L72.5539 22.7756C71.1032 20.2015 68.3204 19.6398 65.3826 21.3809C62.4447 23.122 61.6145 25.3592 62.6911 28.6166Z" fill="#482EDA"/>
<path d="M88.2705 42.3472V0H96.7009V17.523C98.3432 14.9956 101.956 13.3107 105.898 13.3107C113.562 13.3107 118.434 19.4325 118.434 28.5872C118.434 37.7418 113.014 43.0773 105.241 43.0773C101.409 43.0773 98.1242 41.3363 96.6461 38.7528L96.2082 42.3472H88.2705ZM103.434 35.1583C107.43 35.1583 109.949 32.294 109.949 28.1379C109.949 23.9818 107.43 21.1174 103.434 21.1174C99.438 21.1174 96.7556 23.9256 96.7556 28.1379C96.7556 32.3501 99.4927 35.1583 103.434 35.1583Z" fill="#482EDA"/>
<path d="M135.853 0C144.557 0 150.031 4.94238 150.031 12.8053H141.217C141.217 9.88476 139.082 8.08753 135.743 8.08753C132.13 8.08753 129.831 9.77243 129.831 12.5244C129.831 15.0518 131.09 16.2874 133.937 16.9052L140.013 18.1969C147.239 19.7134 150.688 23.2517 150.688 29.8228C150.688 37.8541 144.557 43.0773 135.25 43.0773C125.944 43.0773 120.36 38.0788 120.36 30.2721H129.174C129.174 33.3049 131.364 34.9898 135.305 34.9898C139.247 34.9898 141.819 33.3611 141.819 30.7214C141.819 28.4187 140.779 27.2393 138.097 26.6776L131.911 25.3859C124.685 23.8694 120.963 19.6572 120.963 12.8614C120.963 5.33552 127.148 0 135.853 0Z" fill="#482EDA"/>
<path d="M152.618 28.2502C152.618 19.4887 158.366 13.3669 166.632 13.3669C174.898 13.3669 180.592 19.1517 180.592 28.3064V30.4967L160.72 30.6091C161.213 34.3158 163.238 36.0569 166.961 36.0569C170.136 36.0569 172.38 34.8775 172.982 32.8556H180.701C179.716 39.0897 174.296 43.0773 166.796 43.0773C158.53 43.0773 152.618 36.8994 152.618 28.2502ZM160.83 25.2735H172.216C172.216 22.2969 170.081 20.3873 166.687 20.3873C163.293 20.3873 161.486 21.9037 160.83 25.2735Z" fill="#482EDA"/>
<path d="M182.63 43.0773V14.9956H190.568L191.115 17.9161C192.812 15.5011 195.932 14.097 199.491 14.097C206.005 14.097 209.782 18.3654 209.782 25.7228V43.0773H201.352V27.8009C201.352 24.2626 199.436 21.9599 196.535 21.9599C193.195 21.9599 191.06 24.2064 191.06 27.6885V43.0773H182.63Z" fill="#482EDA"/>
<path d="M219.704 33.4734C219.814 35.4391 221.237 36.6185 223.81 36.6185C226.383 36.6185 227.642 35.6638 227.642 34.2035C227.642 33.3611 227.204 32.4624 225.179 32.0131L220.142 30.8899C215.106 29.7666 212.643 27.5201 212.643 22.5777C212.643 16.7367 217.515 13.3669 224.084 13.3669C230.653 13.3669 234.868 17.186 234.868 22.8585H226.876C226.876 20.9489 225.726 19.6572 223.701 19.6572C221.785 19.6572 220.58 20.6681 220.58 22.1845C220.58 23.4763 221.62 24.2064 223.536 24.6557L228.627 25.779C233.116 26.7899 235.58 28.9241 235.58 33.4172C235.58 39.4267 230.598 43.0773 223.482 43.0773C216.365 43.0773 211.712 39.1459 211.712 33.4734H219.704Z" fill="#482EDA"/>
<path d="M237.509 28.2502C237.509 19.4887 243.257 13.3669 251.523 13.3669C259.789 13.3669 265.482 19.1517 265.482 28.3064V30.4967L245.611 30.6091C246.103 34.3158 248.129 36.0569 251.851 36.0569C255.026 36.0569 257.271 34.8775 257.873 32.8556H265.592C264.606 39.0897 259.187 43.0773 251.687 43.0773C243.421 43.0773 237.509 36.8994 237.509 28.2502ZM245.72 25.2735H257.107C257.107 22.2969 254.972 20.3873 251.578 20.3873C248.184 20.3873 246.377 21.9037 245.72 25.2735Z" fill="#482EDA"/>
<path d="M267.521 38.0226C267.521 35.2144 269.765 32.9117 272.557 32.9117C275.349 32.9117 277.593 35.2144 277.593 38.0226C277.593 40.8308 275.239 43.0773 272.557 43.0773C269.874 43.0773 267.521 40.7746 267.521 38.0226Z" fill="#482EDA"/>
<path d="M279.522 43.0774L293.975 1.51648H302.624L317.021 43.0774H307.605L304.759 34.3159H291.675L288.774 43.0774H279.522ZM294.248 26.6777H302.241L299.339 17.8039C298.901 16.3998 298.409 14.771 298.244 13.7601C298.08 14.7149 297.642 16.2875 297.15 17.8039L294.248 26.6777Z" fill="#482EDA"/>
<path d="M327.819 43.0774H318.95V1.51648H327.819V43.0774Z" fill="#482EDA"/>
</svg>
