<?xml version="1.0" encoding="UTF-8"?>
<svg id="Logo" xmlns="http://www.w3.org/2000/svg" viewBox="0 0 933.33 228.56">
  <defs>
    <style>
      .cls-1 {
        stroke-width: 6px;
      }

      .cls-1, .cls-2, .cls-3 {
        fill: #303036;
      }

      .cls-1, .cls-3 {
        stroke: #303036;
        stroke-miterlimit: 10;
      }

      .cls-2 {
        font-family: AdelleSansDevanagari-Regular, 'Adelle Sans Devanagari';
        font-size: 143.47px;
      }

      .cls-3 {
        stroke-width: 5px;
      }
    </style>
  </defs>
  <text class="cls-2" transform="translate(201.99 156.83) rotate(-.04)"><tspan x="0" y="0">ebSense AI</tspan></text>
  <g>
    <path class="cls-1" d="M149.43,143.77l-32.59-95.45-32.46,95.5c-2.17,6.39-8.17,10.69-14.92,10.69h-10.26c-6.77.01-12.79-4.31-14.95-10.72L3.84,23.88C.39,13.66,7.99,3.08,18.77,3.07h2.93c6.87,0,12.95,4.43,15.03,10.98l27.96,87.72L95.13,13.63c2.19-6.35,8.17-10.62,14.89-10.62h13.57c6.72-.01,12.71,4.24,14.91,10.59l30.56,88.1,10.3,32.17c3.26,10.17-4.33,20.57-15.01,20.58h0c-6.75,0-12.75-4.29-14.93-10.67Z"/>
    <path class="cls-3" d="M205.01,44.44c-1.21-5.29-2.52-9.47-5.69-15.08-5.35-9.45-3.73-18.25,4.03-23.72,7.93-5.59,19.59-3.52,25.25,4.48,5.5,7.78,3.74,18.38-4.02,23.82-1.44,1.01-3.02,1.83-4.59,2.66-4.79,2.53-9.6,5.02-14.97,7.83Z"/>
  </g>
</svg>